/* XPM */
static char *result[] = {
/* columns rows colors chars-per-pixel */
"64 64 201 2 ",
"   c #000000",
".  c #040D04",
"X  c #0E0901",
"o  c #0C0D0C",
"O  c #0F0701",
"+  c #140D01",
"@  c #0C150C",
"#  c #1B1302",
"$  c #151515",
"%  c #1C1C1C",
"&  c #220F00",
"*  c #261903",
"=  c #361C02",
"-  c #391C00",
";  c #1B331B",
":  c #1D3B1D",
">  c #0D260D",
",  c #392403",
"<  c #392601",
"1  c #3A2A19",
"2  c gray14",
"3  c #2E2E2E",
"4  c #323232",
"5  c #3D3D3D",
"6  c #411C00",
"7  c #620F00",
"8  c #492805",
"9  c #5A2807",
"0  c #4C3A0B",
"q  c #5B3901",
"w  c #6B3E00",
"e  c #613000",
"r  c #6D3106",
"t  c #503D2B",
"y  c #1A4D1A",
"u  c #264B26",
"i  c #385D38",
"p  c #2E5D2E",
"a  c #216321",
"s  c #2C6E2C",
"d  c #4B461E",
"f  c #644304",
"g  c #654A06",
"h  c #6E4000",
"j  c #744D03",
"k  c #7C4800",
"l  c #685B15",
"z  c #474721",
"x  c #405826",
"c  c #664728",
"v  c #70572A",
"b  c #726A2E",
"n  c #444444",
"m  c #4D4D4D",
"M  c #515151",
"N  c #5A5A5A",
"B  c #625345",
"V  c #497245",
"C  c #6E6E6E",
"Z  c #646464",
"A  c gray45",
"S  c #7D7D7D",
"D  c #812E00",
"F  c #893700",
"G  c #8D3B00",
"H  c #803E0B",
"J  c #913F00",
"K  c #844200",
"L  c #82440E",
"P  c #884B06",
"I  c #944200",
"U  c #9C4A01",
"Y  c #8B5D09",
"T  c #895903",
"R  c #94520E",
"E  c #955903",
"W  c #945210",
"Q  c #985A1C",
"!  c #B15E00",
"~  c #A95700",
"^  c #966406",
"/  c #8D771C",
"(  c #8D6E15",
")  c #AB6600",
"_  c #B66301",
"`  c #B96601",
"'  c #BC6C01",
"]  c #B0680E",
"[  c #AA7405",
"{  c #B97508",
"}  c #B37D15",
"|  c #885E34",
" . c #826D3C",
".. c #996736",
"X. c #B07234",
"o. c #C06D03",
"O. c #C67300",
"+. c #CA7806",
"@. c #D27F04",
"#. c #D17F0A",
"$. c #80756A",
"%. c #4B863F",
"&. c #568138",
"*. c #428442",
"=. c #468846",
"-. c #559755",
";. c #63A05B",
":. c #63A563",
">. c #6AAC6A",
",. c #73B573",
"<. c #77B977",
"1. c #B18716",
"2. c #B58824",
"3. c #B7A534",
"4. c #C68400",
"5. c #CC8907",
"6. c #D48A0E",
"7. c #DA880A",
"8. c #D78506",
"9. c #D79506",
"0. c #DC9A14",
"q. c #D89212",
"w. c #CA8F14",
"e. c #E6930A",
"r. c #E9960B",
"t. c #ED9B0C",
"y. c #E29B0E",
"u. c #F09E0E",
"i. c #DAA614",
"p. c #F6A40F",
"a. c #F5B30F",
"s. c #F7A510",
"d. c #F7AD18",
"f. c #F7A813",
"g. c #F7B510",
"h. c #F6B21D",
"j. c #E7A715",
"k. c #D99E21",
"l. c #EEB92A",
"z. c #E9B326",
"x. c #F6BC27",
"c. c #F1BD2B",
"v. c #E7AC23",
"b. c #DEC02C",
"n. c #F3C22D",
"m. c #F7CC27",
"M. c #F6C530",
"N. c #F7C935",
"B. c #F7D631",
"V. c #F7D83C",
"C. c #E9C52B",
"Z. c #8F8F43",
"A. c #BD894E",
"S. c #958163",
"D. c #B79772",
"F. c #C68442",
"G. c #C0894D",
"H. c #C58F56",
"J. c #D1975A",
"K. c #DCB37E",
"L. c #E7A563",
"P. c #E8A867",
"I. c #DACC57",
"U. c #F6D649",
"Y. c #F4DC57",
"T. c #E4CB50",
"R. c #F3E35F",
"E. c #E7CE7E",
"W. c #F6E561",
"Q. c #F7F773",
"!. c #E9E96D",
"~. c #8A8A8A",
"^. c #939393",
"/. c #9C9C9C",
"(. c #9E9897",
"). c #80A680",
"_. c #A5A5A5",
"`. c #B6B6B6",
"'. c #D4B996",
"]. c #8CCE8C",
"[. c #86C686",
"{. c #94D694",
"}. c #A6CCA6",
"|. c #B4F6B4",
" X c #A7E5A7",
".X c #DACB98",
"XX c #E7C595",
"oX c #F5D494",
"OX c #FBEA9F",
"+X c #DDCBBD",
"@X c #F6D5A4",
"#X c #E0CDBA",
"$X c #F7F7B5",
"%X c #C2C2C2",
"&X c #CBCAC8",
"*X c #CBDDCB",
"=X c #DADADA",
"-X c #D2D2D2",
";X c #E4D0C0",
":X c #F7ECD6",
">X c None",
/* pixels */
">X>X>X>X>X>X>X>X>X>X>X>X>X>X>X>X>X>X>X>X>X>X:XR.4 >X>X>X>X>X>X>X>X>X>X>X>X>X>X>X>X>X>X>X>X>X>X>X>X>X>X>X>X>X>X>X>X>X>X>X>X>X>X>X",
">X>X>X>X>X>X>X>X>X>X>X>X>X>X>X>X>X>X4.a.B.a.a.a.B.z >X>X>X>X>X>X>X>X>X>X>X>X>X>X>X>X>X>X>X>X>X>X>X>X>X>X>X>X>X>X>X>X>X>X>X>X>X>X",
">X>X>X>X>X>X>X>X>X>X>X>X>X>X>X>XV.4.%.%.. !.X o # V >XA >X>X>X>X>X>X>X>X>X>X>X>X>X>X>X>X>X>X>X>X>X>X>X>X>X>X>X>X>X>X>X>X>X>X>X>X",
">X>X>X>X>X>X>X>X>X>X>X>X>X>X>XB.K g.      Q.@X'.  <.  Z.>X>X>X>X>X>X>X>X>X>X>X>X>X>X>X>X>X>X>X>X>X>X>X>X>X>X>X>X>X>X>X>X>X>X>X>X",
">X>X>X>X>X>X>X>X>X>X>X>X>X>X>X>X    B.L.@Xg.W 9 @X..  V.>X>X>X>X>X>X>X>X>X>X>X>X>X>X>X>X>X>X>X>X>X>X>X>X>X>X>X>X>X>X>X>X>X>X>X>X",
">X>X>X>X>X>X>X>X>X>X>X>X>X>X>X>Xg.    L.@X@X>X>XoX'.>Xg >X>X>X>X>X>X>X>X>X>X>X>X>X>X>X>X>X>X>X>X>X>X>X>X>X>X>X>X>X>X>X>X>X>X>X>X",
">X>X>X>X>X>X>X>X>X>X>X>X>X>X>X>X  g.@X@X@X@X@X@X@Xt >Xj >X>X>X>X>X>X>X>X>X>X>X>X>X>X>X>X>X>X>X>X>X>X>X>X>X>X>X>X>X>X>X>X>X>X>X>X",
">X>X>X>X>X>X>X>X>X>X>X>X>X>X>X>Xg.  @X@X%X>X>X&XR 5 >X-X>X>X>X>X>X>X>X>X>X>X>X>X>X>X>X>X>X>X>X>X>X>X>X>X>X>X>X>X>X>X>X>X>X>X>X>X",
">X>X>X>X>X>X>X>X>X>X>X>X>X>XQ B.@X@X  @X`.W >X(.  >X>X>X>X>X>X>X>X>X>X>X>X>X>X>X>X>X>X>X>X>X>X>X>X>X>X>X>X>X>X>X>X>X>X>X>X>X>X>X",
">X>X>X>X>X>X>X>X>X>X>X>X>X>XC.g.@X@XP.  @X@X@XXX>X>X>X>X>X>X>X>X>X>X>X>X>X>X>X>X>X>X>X>X>X>X>X>X>X>X>X>X>X>X>X>X>X>X>X>X>X>X>X>X",
">X>X>X>X>X>X>X>X>X>X>X>X>X>X[   A M   3 3 3   >X>X>X>X>X>X>X>X>X>X>X>X>X>X>X>X>X>X>X>X>X>X>X>X>X>X>X>X>X>X>X>X>X>X>X>X>X>X>X>X>X",
">X>X>X>X>X>X>X>X>X>X>X>X>X>X  n . n M O 5 n $ o o o >X=X=X=X=X>X>X>X>X>X>X>X>X>X>X>X>X>X>X>X>X>X>X>X>X>X>X>X>X>X>X>X>X>X>X>X>X>X",
">X>X>X>X>X>X>X>X>X>X>X>X>X>XI.$X      _.M M M m 3 m M N   3 M   >X>X>X>X>X>X>X>X>X>X>X>X>X>X>X>X>X>X>X>X>X>X>X>X>X>X>X>X>X>X>X>X",
">X>X>X>X>X>X>X>X>X>X>X>X>X`.5.6.E.T.d  .M M 5 5 M m m m n % 5 5 o /.>X>X>X>X>X>X>X>X>X>X>X>X>X>X>X>X>X>X>X>X>X>X>X>X>X>X>X>X>X>X",
">X>X>X>X>X>X>X>X>X>X>X>X>XJ J o.M.M.M.M.  3 m M M m 4 %     4 o   3   >X>X>X>X>X>X>X>X>X>X>X>X>X>X>X>X>X>X>X>X>X>X>X>X>X>X>X>X>X",
">X>X>X>X>X>X>X>X>X>X>X>XZ W.W.W.0.0.M.M.U.b M 5 n % 4 m S ~.S Z S 3   OX>X>X>X>X>X>X>X>X>X>X>X>X>X>X>X>X>X>X>X>X>X>X>X>X>X>X>X>X",
">X>X>X>X>X>X>X>X>X>X>X  W.W.W.W.n.M.O.M.M.O.  3   N A M M 2         3 I s.>X>X>X>X>X>X>X>X>X>X>X>X>X>X>X>X>X>X>X>X>X>X>X>X>X>X>X",
">X>X>X>X>X>X>X>X>X>X .U.W.W.W.W.M.M.M.G q.8.    m 3 M m % 2 3 3   3 % I I ' 2.oXOX>X>X>X>X>X>X>X>X>X>X>X>X>X>X>X>X>X>X>X>X>X>X>X",
">X>X>X>X>X>X>X>X>X>X/ W.r.s.p.p.O.O.M.I I O.N.o M 5       4 4 $   3 3   I I I I   >X>X>X>X>X>X>X>X>X>X>X>X>X>X>X>X>X>X>X>X>X>X>X",
">X>X>X>X>X>X>X>X>X>Xj t.p.p.p.p.p.@.G U s.s.N.I.M M M M     M N N 3 5 5 & I I   >X>X>X>X>X>X>X>X>X>X>X>X>X>X>X>X>X>X>X>X>X>X>X>X",
">X>X>X>X>X>X>X>X>X>XY p.s.s.s.o.J M.o.n.s.s.N.N.  M M 4 3 3   5 3 A A 3 M     O.  >X>X>X>X>X>X>X>X>X>X>X>X>X>X>X>X>X>X>X>X>X>X>X",
">X>X>X>X>X>X>X>X>X>XY s._ l.c.O.I J I l.s.s.p.N.  3 3 2 m m m $ M O o  X].*.  +   >X>X>X>X>X>X>X>X>X>X>X>X>X>X>X>X>X>X>X>X>X>X>X",
">X>X>X>X>X>X>X>X>X>XC G M.o.o.G n.M.n.o.s.s.p.N.  3   M M M M $ *.{.,.  *.:.  ,.:.            >X>X>X>X>X>X>X>X>X>X>X>X>X>X>X>X>X",
">X>X>X>X>X>X>X>X>X>X>X>X2.n.O.o.n.W.o.n.s.s.I s.  o 4 4 3 2 ,.|.  .X$X,.  M M M   *.  O.s.s.h.p.~.>X>X>X>X>X>X>X>X>X>X>X>X>X>X>X",
">X>X>X>X>X>X>X>X>X>X>X>Xe ' l.c.W.n.n.W.s.s.s.U   o 4 4 4 V ,.2 N.M.$X,.    M M M *.*.    s.p.M.j     >X>X>XW W >X>X>X>X>X>X>X>X",
">X>X>X>X>X>X>X>X>X>X>X>Xn n.c.' n.n.n.n.      >X        *.: c.d.  ].|.  M.M.N.M M M +     :.>.,.[.    :.=X  W   W >X>X>XL.@X>X>X",
">X>X>X>X>X>X>X>X>X>X>X>X>XG l.l.n.n.n.n.>X>X>X>X>X>X>X; *.( c.p {.|.  W.M.O.n.  M M m s.t.          0   @ P.L.F.F.        P.W >X",
">X>X>X>X>X>X>X>X>X>X>X>X>X  z.n.n._ n.  >X>X>X. :.:.,.,.,.,.,.;   n.W.$X$XM.M.N.  M M M , O.h.M.M.O.T K *   W W L.L.    W W >X>X",
">X>X>X>X>X>X>X>X>X>X>X>Xn F _ _ F n.` G >X>X  =.              T N.c.W.$X$XM.M.    M M 4 , O.p.M.M.N.0   &   P.L.W W Q F.@X@XR >X",
">X>X>X>X>X>X>X>X>X>X>X  Y.W.W.W.R.R.n.`   >X*.$ >X>X>X>X  h p.8.M.x.M.p.$XM.M.N.M.4 4   @.p.e.p.M.N.N.M.*   L.L.L.R   F.W Q >X>X",
">X>X>X>X>X>X>X>X>X:XC n.Y.M.l.n.l.n.Y.C.{ =X2 y . . . . a > p.v.u.M.M.M.$XM.M.M.M.4 3 O.O.s.e.u.h.M.M.M.M.M.H.L.L.k X.L '.X.>X>X",
">X>X>X>X>X>X>X>X'.>XC c.c.      n.n.n.l.c.  >X>X          A I 8.M.n.s.c.$XM.M.M.n.  O O.O.O.s.O.s.p.M.M.M.N.N.        R >X>X>X>X",
">X>X>X>X>X>X>X#XA.  m 2.0 ] m.T.z z l.n.n.  >X>X>X>X>X>X>XA s.6.M.v.6.M.$XM.M.M.M.O.` O.O.O.u.s.7.p.h.x.x.M.M.p.>X>XD.| m >X>X>X",
">X>X>X>X>X>X>X  P.P.@X@X@Xw.  Q._ B.  n.n.  >X>X>X>X>X>X>X>X  k.n.x.M.c.W.M.M.M.N.  +   O.O.O.f.+.p.p.p.p.s.s.p.  >X>X>X>X>X>X>X",
">X>X>X>X>X>X>XA ..A.H.@X@X@XX.8 Z.'   c.A >X>X>X>X>X>X>X>X;Xo.M.w.c.M.U.W.M.M.M.n.>X>XA K O.O.O.O.p.p.p.p.p.p.p.s.6 >X>X>X>X>X>X",
">X>X>X>X>X>X>X>Xc P.| P.Q @XXX@XW k n.  >X>X>X>X>X>X>X>X>XY s.] M.l.M.W.M.M.M.M.N.>X>X>X* O.O.O.~ p.p.p.p.p.s.p.p.p.>X>X>X>X>X>X",
">X>X>X>X>X>X>X>XS /.t R c L.A.A.L.  $.D.>X>X>X>X>X>X>X>X>XY f } v.M.M.U.M.M.M.M.h.>X>X>X>X0 K O.O.  s.s.8.p.p.p.s.p.>X>X>X>X>X>X",
">X>X>X>X>X>X>X>X>X>X>X  t   W @XL.L.@X~ >X>X>X>X>X>X>X>X>X  s.c.M.M.M.M.M.M.M.M.N.>X>X>X>X>X/.  O.  ! I p.s.p.p.p.s.  >X>X>X>X>X",
">X>X>X>X>X>X>X>X>X>X>X>X>X>X$ L.1 1   L.>X>X>X>X>X>X5 v { f.s.s.f.d.M.M.M.M.M.d.  >X>X>X>X>X/.O.E E e.s.p.p.p.s.p.p.  y 5 >X>X>X",
">X>X>X>X>X>X>X>X>X>X>X>X>X>X%   >X>X>X  >X>X>X>X>X  s.s.s.s.s.s.s.s.s.s.s.s.s.  >X>X>X>X>X>X/.O.O.O.s.s.p.s.p.p.p.s.  *.a o >X>X",
">X>X>X>X>X>X>X>X>X>X>X>X>X>X>X>X>X>X>X>X>X>X>X>X>X< s.s.s.;.].].>.y.s.s.p.p.U   >X>X>X>X>X>X/.O.O.O.e.s.p.p.p.p.+ + *.*.a o >X>X",
">X>X>X>X>X>X>X>X>X>X>X>X>X>X>X>X>X>X>X>X>X>X>X>X>X%Xs.s.a {.*.:.{.s a a p.I p.s.  >X>X>X>X>X/.O.O.O.O.O.O.O.O.O.:.:.:.a a o >X>X",
">X>X>X>X>X>X>X>X>X>X>X>X>X>X>X>X>X>X>X>X>X>X>X>X>X>X  ^ *.=.:.:.:.a a {.,.s.s.  >X>X>X>X>X>X>X>XA   _ O.O.O.  *.*.a *.*.a o >X>X",
">X>X>X>X>X>X>X>X>X>X>X>X>X>X>X>X>X>X>X>X>X>X>X>X>X>X  ; *.i :.:.:.:.:.*.*.p.I >X>X>X>X>X>X>X>X>X>X            a   a *.*.a $ >X>X",
">X>X>X>X>X>X>X>X>X>X>X>X>X>X>X>X>X>X>X>X>X>X>X    M.s.;   :.:.:.:.:.:.*.  >X>X>X>X>X>X>X>X>X>X>Xh O.D O.#   a   a   a a   >X>X>X",
">X>X>X>X>X>X>X>X>X>X>X>X>X>X>X>X>X>X>X>X>X    M.M.M.s.;   :.:.:.:.:.    >X>X>X>X>X>X>X>X>X>X>X  O.O.O.7 O.O.    a a a a >X>X>X>X",
">X>X>X>X>X>X>X>X>X>X>X>X>X>X>X>X>X>X  N.n.M.M.M.M.M.M./ *.:.:.;   @   >X>X>X>X>X>X>X>X>X>X>X/.O.O.O.O.O.U O.O.O.O.    >X>X>X>X>X",
">X>X>X>X>X>X>X>X>X>X>X>X>X>X>X>X>X>Xn.N.n.n.M.M.M.M.M.f.          =X>X>X>X>X>X>X>X>X>X>X>X>X/.O.O.O.O.O.O.O.O.O.O.O.>X>X>X>X>X>X",
">X>X>X>X>X>X>X>X>X>X>X>X>X>X>X>XO.  M.M.M.M.n.n.p.p.p.p.I +.  >X>X>X>X>X>X>X>X>X>X>X>X>X>X>X>X>Xh O.O.O.O.O.O.O.    >X>X>X>X>X>X",
">X>X>X>X>X>X>X>X>X>X>X>X>X>X>X>XO P n.n.n.c.p.u.t.e.O.U u.q >X>X>X>X>X>X>X>X>X>X>X>X>X>X>X>X>X>XA _ ' O.O.+.) % >X>X>X>X>X>X>X>X",
">X>X>X>X>X>X>X>X>X>X>X>X>X>X>X  H s.p.p.s.s.p.p.p.e.O.8.s.~.>X>X>X>X>X>X>X>X>X>X>X>X>X>X>X>X>X>Xw 7 <   #   >X>X>X>X>X>X>X>X>X>X",
">X>X>X>X>X>X>X>X>X>X>X>X&X+XR s.d.p.p.p.7.7.7.@.8.7.p.t.n >X>X>X>X>X>X>X>X>X>X>X>X>X>X>X>X>X>X= O.O._ O.[   *X*X>X>X>X>X>X>X>X>X",
">X>X>X>X>X>X>X>X>X>X}.:.:.f.f.s.      I p.p.p.p.p.p.p.^ >X>X>X>X>X>X>X>X>X>X>X>X>X>X>X>X>X>X>X*.O.O.O.O.&.  O.O.*.>X>X>X>X>X>X>X",
">X>X>X>X>X>X>X>X>X>X%X^.< i i 3.u -.s.Y Y Y C C C C C _.>X>X>X>X>X>X>X>X>X>X>X>X>X>X>X>X>X>X>X^.x u / / ^   ).).>X>X>X>X>X>X>X>X",
">X>X>X>X>X>X>X>X^.  Y   4.L r L *.s.  >X>X>X>X>X>X>X>X>X>X>X>X>X>X>X>X>X>X>X>X>X>X>X>X>X>X>X>X  K K       4.  >X>X>X>X>X>X>X>X>X",
">X>X>X>X>X>X=Xj Y g T 4.q = 8 O f ^.>X>X>X>X>X>X>X>X>X>X>X>X>X>X>X>X>X>X>X>X>X>X>X>X>X>X>X>X>X>XB = 9 K ) ) ) j >X>X>X>X>X>X>X>X",
">X>X>X>X>X>X%XK g g.g.4.R   + >X>X>X>X>X>X>X>X>X>X>X>X>X>X>X>X>X>X>X>X>X>X>X>X>X>X>X>X>X>X>X>X>X>X>Xm K [ 4.        >X>X>X>X>X>X",
">X>X>X>X>X>Xt 1.y.j.} 4.9 & >X>X>X>X>X>X>X>X>X>X>X>X>X>X>X>X>X>X>X>X>X>X>X>X>X>X>X>X>X>X>X>X>X>X>X>Xm e 4.< g.g.g.g.n >X>X>X>X>X",
">X>X>X>X>X  a.a.g.g.9.    >X>X>X>X>X>X>X>X>X>X>X>X>X>X>X>X>X>X>X>X>X>X>X>X>X>X>X>X>X>X>X>X>X>X>X>X>X>X  + a.a.a.K 4.K   >X>X>X>X",
">X>X>X% w.# d b.C.# f >X>X>X>X>X>X>X>X>X>X>X>X>X>X>X>X>X>X>X>X>X>X>X>X>X>X>X>X>X>X>X>X>X>X>X>X>X>X>X>X>X^ 4.5.# g.g.g.a.  >X>X>X",
">X>X    # B.9.g.i.B.  >X>X>X>X>X>X>X>X>X>X>X>X>X>X>X>X>X>X>X>X>X>X>X>X>X>X>X>X>X>X>X>X>X>X>X>X>X>X>X>X>X2               >X>X>X>X",
">XB.B.K 5.  %   B.K l >X>X>X>X>X>X>X>X>X>X>X>X>X>X>X>X>X>X>X>X>X>X>X>X>X>X>X>X>X>X>X>X>X>X>X>X>X>X>X>X>X>X>X>X>X>X>X>X>X>X>X>X>X",
">X  K B.  A A A l B.- >X>X>X>X>X>X>X>X>X>X>X>X>X>X>X>X>X>X>X>X>X>X>X>X>X>X>X>X>X>X>X>X>X>X>X>X>X>X>X>X>X>X>X>X>X>X>X>X>X>X>X>X>X",
">X>X>X>X        C >X>X>X>X>X>X>X>X>X>X>X>X>X>X>X>X>X>X>X>X>X>X>X>X>X>X>X>X>X>X>X>X>X>X>X>X>X>X>X>X>X>X>X>X>X>X>X>X>X>X>X>X>X>X>X"
};
