/* XPM */
static char *output_onlinepngtools1662893267[] = {
/* columns rows colors chars-per-pixel */
"64 64 18 1 ",
"  c None",
". c black",
"X c #010101",
"o c #101010",
"O c #221105",
"+ c #271C10",
"@ c #282828",
"# c #3C3C3C",
"$ c #562B0C",
"% c #69340E",
"& c #654729",
"* c gray33",
"= c #686868",
"- c DimGray",
"; c SaddleBrown",
": c #A37343",
"> c #9D9D9D",
", c gray72",
/* pixels */
"                            ........                            ",
"                            ........                            ",
"                        ....-.----.-....                        ",
"                     ....-----.--.-----....                     ",
"                    .----.-----..-----.----.                    ",
"                   .------............------.                   ",
"                   .------............------.                   ",
"                  ..-----...:;;;;:;;...----.-.                  ",
"                ..--.--..;;;:;;;;:;;;;:....---..                ",
"                ..---..:;;;;:;;;;:;;;;:;;..---..                ",
"               .----.;;:;;;;:;;;;:;;;;:;;;;.--...               ",
"               .----.;;:;;;;:;;;;:;;;;:;;;;.--...               ",
"               .----.;;:;;;;:;;;;:;;;;:;;;;.-.--.               ",
"               ...-.;;;:;;;;:;;;;:;;;;:;;;;:.---.               ",
"              .---..;;;:;;;;:;;;;:;;;;:;;;;:.----.              ",
"              .---.;;;;:;;;;:;;;;:;;;;:;;;;:;.---.              ",
"              .---.;;;;:;;;;:;;;;:;;;;:;;;;:;.---.              ",
"              .---.;;;;:;;;;:;;;;:;;;;:;;;;:;.---.              ",
"              .---.;;;;:;;;;:;;;;:;;;;:;;;;:;.---.              ",
"              .....;;;;:;;;;:;;;;:;;;;:;;;;:;.....              ",
"              .---.;;;;:;;;;:;;;;:;;;;:;;;;:;.---.              ",
"              .---.;;;;:;;;;:;;;;:;;;;:;;;;:;.---.              ",
"              .---.;;;;:;;;;:;;;;:;;;;:;;;;:;.---.              ",
"              .---.;;;;:;;;;:;;;;:;;;;:;;;;:;.---.              ",
"              .---.;;;;:;;;;:;;;;:;;;;:;......---.              ",
"              .....;;;;:;;;;:;;;;:;;;;:;.,,.,.....              ",
"              .ooo.;;;;:;;;;:;;;;:;;;;:;.>>.>.ooo.              ",
"              .---.;;;;:;;;;:;;;;:;;;;:;......---.              ",
"              .---.;;;;:;;;;:;;;;:;;;;:;;;;:;.---.              ",
"              .---.;;;;:;;;;:;;;;:;;;;:;;;;:;.---.              ",
"              .---.;;;;:;;;;:;;;;:;;;;:;;;;:;.---.              ",
"              .***.;;;;:;;;;:;;;;:;;;;:;;;;:;.***.              ",
"              .....;;;;:;;;;:;;;;:;;;;:;;;;:;.....              ",
"              .---.;;;;:;;;;:;;;;:;;;;:;;;;:;.---.              ",
"              .---.;;.....;;:;;;;:;;;;:;;;;:;.---.              ",
"              .---.;;;;..;;;:;;;;:;;;;:;;;;:;.---.              ",
"              .---.;;%%+O%;;:;;;;:;;;;:;;;;:;.---.              ",
"              .---.;;..:;.;;:;;;;:;;;;:;;;;:;.---.              ",
"              .....;;..:;.;;:;;;;:;;;;:;;;;:;.....              ",
"              .---.;;;;..;;;:;;;;:;;;;:;;;;:;.---.              ",
"              .---.;;;;:;;;;:;;;;:;;;;:;;;;:;.---.              ",
"              .---.;;;;:;;;;:;;;;:;;;;:;;;;:;.---.              ",
"              .---.;;;;:;;;;:;;;;:;;;;:;;;;:;.---.              ",
"              .---.;;;;:;;;;:;;;;:;;;;:;;;;:;.---.              ",
"              .....;;;;:;;;;:;;;;:;;;;:;;;;:;.....              ",
"              .---.;;;;:;;;;:;;;;:;;;;:;;;;:;.---.              ",
"              .---.;;;;:;;;;:;;;;:;;;;:;;;;:;.---.              ",
"              .---.;;;;:;;;;:;;;;:;;;;:;;;;:;.---.              ",
"              .---.;;;;:;;;;:;;;;:;;;;:;;;;:;.---.              ",
"              .---.;;;;:;;;;:;;;;:;;;;:;;;;:;.---.              ",
"              .....;;;;:;;;;:;;;;:;;;;:;;;;:;.....              ",
"              .@@@.;;;;:;;;;:;;;;:;;;;:;$$$&$.@@@.              ",
"              .---.;;;;:;;;;:;;;;:;;;;:;......---.              ",
"              .---.;;;;:;;;;:;;;;:;;;;:;.,,.,.---.              ",
"              .---.;;;;:;;;;:;;;;:;;;;:;......---.              ",
"              .---.;;;;:;;;;:;;;;:;;;;:;;;;:;.---.              ",
"              .###.;;;;:;;;;:;;;;:;;;;:;;;;:;.###.              ",
"              .....;;;;:;;;;:;;;;:;;;;:;;;;:;.....              ",
"              .---.;;;;:;;;;:;;;;:;;;;:;;;;:;.---.              ",
"              .---.;;;;:;;;;:;;;;:;;;;:;;;;:;.---.              ",
"              .---.;;;;:;;;;:;;;;:;;;;:;;;;:;.---.              ",
"              .---.;;;;:;;;;:;;;;:;;;;:;;;;:;.---.              ",
"              .---.;;;;:;;;;:;;;;:;;;;:;;;;:;.---.              ",
"              ....................................              "
};
