/* XPM */
static char *c87b7b555a4d46f691856737811f3343rTIVjpT7V0TYdNzC[] = {
/* columns rows colors chars-per-pixel */
"64 64 90 1 ",
"  c None",
". c #0F1013",
"X c #111215",
"o c #131016",
"O c #16171B",
"+ c #191B1F",
"@ c #1C1D21",
"# c #1E2023",
"$ c #1F2023",
"% c #1F2124",
"& c #212225",
"* c #212226",
"= c #222326",
"- c #232426",
"; c #242627",
": c #25262A",
"> c #28292A",
", c #2A2A2B",
"< c #2B2B2C",
"1 c #2C2C2D",
"2 c #2D2D2E",
"3 c gray18",
"4 c #2A2B30",
"5 c #2C2D31",
"6 c gray19",
"7 c gray21",
"8 c #373737",
"9 c #3E3832",
"0 c #343538",
"q c #36383E",
"w c #3A3A3A",
"e c #3C3C3C",
"r c #3E3E3E",
"t c #3F3F3F",
"y c #4F4A3D",
"u c #544830",
"i c #3C3E44",
"p c #11797F",
"a c gray26",
"s c gray27",
"d c #5A5647",
"f c #4B4D50",
"g c #505154",
"h c #555357",
"j c #555559",
"k c #5A5B5E",
"l c #6C5A47",
"z c #625B52",
"x c #716953",
"c c #7E6D5A",
"v c #626366",
"b c #68696C",
"n c #9A6D29",
"m c #847868",
"M c #887B6C",
"N c #9F7370",
"B c #D6716A",
"V c #B6933A",
"C c #C38526",
"Z c #C88C29",
"A c #CC912A",
"S c #D29A2E",
"D c #D59E2F",
"F c #BE9A4A",
"G c #8F816F",
"H c #A2927D",
"J c #A3927D",
"K c #A6957F",
"L c #C09D43",
"P c #DDB14D",
"I c #E5B845",
"U c #E8C976",
"Y c #7E7E80",
"T c gray61",
"R c #BBA283",
"E c #BCA88E",
"W c gray",
"Q c #C7B983",
"! c #E4C59D",
"~ c #E8C89F",
"^ c #C4C0AD",
"/ c #F2D0A4",
"( c #F5D2A6",
") c #CBCBCB",
"_ c #DBDBDC",
"` c #DDDDDE",
"' c #E8E9E9",
"] c #E9EAEA",
"[ c #EAEBEB",
"{ c #FDF5EB",
/* pixels */
"                                                                ",
"                                                                ",
"                                                                ",
"                                                                ",
"                                                                ",
"                                                                ",
"                                                   :::.         ",
"                                             [:::[::::X[        ",
"                                             :.::.:::::X        ",
"                                             .::::::::::.       ",
"           +   + ++_                        .:::::::::::.       ",
"         k +++f++++                  :::::  .:::::::::::.       ",
"   _   +_g+_ ++++++___            ``::::::::.-:::&:::::&0       ",
" +  ++ ++++++++++++++           ::::::::::::...::.::::.         ",
"  + b+++++++++++++++++          ::::::::::::I..::.::::          ",
"  +++++++++++++++++H((((     5:::::..::::::Iee..:.::::          ",
"  ++++++6>@66+@6@+6H~~(((    5::::::::: ::IIeee...::::          ",
"  +++++<#-3%#63#<>@mRR~/({{  q4::::::    jVLeez9..:::.          ",
"  ++++666666666CC6@++@~~~((( :i::::::  :..::ee~~~..::.    ..oo  ",
"  +++6+66666666CC@@KE~~~~~~((5:iii::::::.:::~~~~~:::. .....:ooX ",
"++++&6666666666C66@HE~~~~~~~(~::IIIIIIII::::::~.......::::::::oo",
"+++6>6666CCCCCC6666<E~~~~~~~~(:IIIIIIII:::::::B..:::::::::::::oo",
" ++%3666ZADZZDS6666@GE~~~~~~~(II:::::::::::::pN:::::::::::::vvhh",
" +++6666DDDDDDu6666#@EE~~~~~~((E::::::::::cc:pp::::::::::::     ",
"  +6>666DDDDDDu6666%@@E~~~~~~((Eccc::::::ccc:;;::::::::::       ",
"  ++6666666666u66666@@EE~~~~~((Ecccclccccccc::pI::::x.          ",
"  ++666666D666u666666@EE!~~~~~(Ecccclccccccc::pI::xxx.          ",
"  +666666FUU66u6666666EEE~~~~~(Mcccclcccccccc:IB&Oyyy.          ",
"  666666DPDDD6u6666666EEE~~~~~~:ccccllccccccc::B..........Xo    ",
"  666666DPDDD6u6666666EEE~~~~~~:cc:::lccccccc:-B.::::::::..:o   ",
"  6666666nCC66u6666666EEE~~~~~ :::: ::::::^^^::B::::::::::::oo  ",
"  66666666D666u6666666EEE~~~~   ::       :::^^:B::::::::::::oo  ",
"  666666666666d6666666EEE~~~~              YY::  YYY:::::::ooo  ",
"  sse6s6666666d6666666EEEE~                   :      .     Xoo  ",
"  s6ws66666666d6666666EE                                    oo  ",
"    7s66st6ss6Q6666666                                          ",
"    s6ss67sss6Q6666666 +[                                       ",
"    WswwsawT   6666666++                                        ",
"       ss)      s6666                                           ",
"                 ss6s                                           ",
"                                                                ",
"                                                                ",
"                                                                ",
"                                                                ",
"                                                                ",
"                                                                ",
"                                                                ",
"                                                                ",
"                                                                ",
"                                                                ",
"                                                                ",
"                                                                ",
"                                                                ",
"                                                                ",
"                                                                ",
"                                                                ",
"                                                                ",
"                                                                ",
"                                                                ",
"                                                                ",
"                                                                ",
"                                                                ",
"                                                                ",
"                                                                "
};
