/* XPM */
static char *ground1662892876[] = {
/* columns rows colors chars-per-pixel */
"64 64 256 2 ",
"   c black",
".  c #010101",
"X  c #020202",
"o  c gray1",
"O  c #040404",
"+  c gray2",
"@  c #060606",
"#  c #070707",
"$  c gray3",
"%  c #090909",
"&  c gray4",
"*  c #0B0B0B",
"=  c #0C0C0C",
"-  c gray5",
";  c #0E0E0E",
":  c gray6",
">  c #101010",
",  c #111111",
"<  c gray7",
"1  c #131313",
"2  c gray8",
"3  c #151515",
"4  c #161616",
"5  c gray9",
"6  c #181818",
"7  c #191919",
"8  c gray10",
"9  c #1B1B1B",
"0  c gray11",
"q  c #1D1D1D",
"w  c #1E1E1E",
"e  c gray12",
"r  c #202020",
"t  c gray13",
"y  c #222222",
"u  c #232323",
"i  c gray14",
"p  c #252525",
"a  c gray15",
"s  c #272727",
"d  c #282828",
"f  c gray16",
"g  c #2A2A2A",
"h  c gray17",
"j  c #2C2C2C",
"k  c #2D2D2D",
"l  c gray18",
"z  c #2F2F2F",
"x  c gray19",
"c  c #313131",
"v  c #323232",
"b  c gray20",
"n  c #343434",
"m  c #353535",
"M  c gray21",
"N  c #373737",
"B  c gray22",
"V  c #393939",
"C  c #3A3A3A",
"Z  c gray23",
"A  c #3C3C3C",
"S  c gray24",
"D  c #3E3E3E",
"F  c #3F3F3F",
"G  c gray25",
"H  c #414141",
"J  c gray26",
"K  c #434343",
"L  c #444444",
"P  c gray27",
"I  c #464646",
"U  c gray28",
"Y  c #484848",
"T  c #494949",
"R  c gray29",
"E  c #4B4B4B",
"W  c #4C4C4C",
"Q  c gray30",
"!  c #4E4E4E",
"~  c gray31",
"^  c #505050",
"/  c #515151",
"(  c gray32",
")  c #535353",
"_  c gray33",
"`  c #555555",
"'  c #565656",
"]  c gray34",
"[  c #585858",
"{  c gray35",
"}  c #5A5A5A",
"|  c #5B5B5B",
" . c gray36",
".. c #5D5D5D",
"X. c gray37",
"o. c #5F5F5F",
"O. c #606060",
"+. c gray38",
"@. c #626262",
"#. c gray39",
"$. c #646464",
"%. c #656565",
"&. c gray40",
"*. c #676767",
"=. c #686868",
"-. c DimGray",
";. c #6A6A6A",
":. c gray42",
">. c #6C6C6C",
",. c #6D6D6D",
"<. c gray43",
"1. c #6F6F6F",
"2. c gray44",
"3. c #717171",
"4. c #727272",
"5. c gray45",
"6. c #747474",
"7. c gray46",
"8. c #767676",
"9. c #777777",
"0. c gray47",
"q. c #797979",
"w. c gray48",
"e. c #7B7B7B",
"r. c #7C7C7C",
"t. c gray49",
"y. c #7E7E7E",
"u. c gray50",
"i. c #808080",
"p. c #818181",
"a. c gray51",
"s. c #838383",
"d. c #848484",
"f. c gray52",
"g. c #868686",
"h. c gray53",
"j. c #888888",
"k. c #898989",
"l. c gray54",
"z. c #8B8B8B",
"x. c gray55",
"c. c #8D8D8D",
"v. c #8E8E8E",
"b. c gray56",
"n. c #909090",
"m. c gray57",
"M. c #929292",
"N. c #939393",
"B. c gray58",
"V. c #959595",
"C. c gray59",
"Z. c #979797",
"A. c #989898",
"S. c gray60",
"D. c #9A9A9A",
"F. c #9B9B9B",
"G. c gray61",
"H. c #9D9D9D",
"J. c gray62",
"K. c #9F9F9F",
"L. c #A0A0A0",
"P. c gray63",
"I. c #A2A2A2",
"U. c gray64",
"Y. c #A4A4A4",
"T. c #A5A5A5",
"R. c gray65",
"E. c #A7A7A7",
"W. c gray66",
"Q. c #A9A9A9",
"!. c #AAAAAA",
"~. c gray67",
"^. c #ACACAC",
"/. c gray68",
"(. c #AEAEAE",
"). c #AFAFAF",
"_. c gray69",
"`. c #B1B1B1",
"'. c #B2B2B2",
"]. c gray70",
"[. c #B4B4B4",
"{. c gray71",
"}. c #B6B6B6",
"|. c #B7B7B7",
" X c gray72",
".X c #B9B9B9",
"XX c gray73",
"oX c #BBBBBB",
"OX c #BCBCBC",
"+X c gray74",
"@X c gray",
"#X c gray75",
"$X c #C0C0C0",
"%X c #C1C1C1",
"&X c gray76",
"*X c #C3C3C3",
"=X c gray77",
"-X c #C5C5C5",
";X c #C6C6C6",
":X c gray78",
">X c #C8C8C8",
",X c gray79",
"<X c #CACACA",
"1X c #CBCBCB",
"2X c gray80",
"3X c #CDCDCD",
"4X c #CECECE",
"5X c gray81",
"6X c #D0D0D0",
"7X c gray82",
"8X c #D2D2D2",
"9X c LightGray",
"0X c gray83",
"qX c #D5D5D5",
"wX c gray84",
"eX c #D7D7D7",
"rX c #D8D8D8",
"tX c gray85",
"yX c #DADADA",
"uX c gray86",
"iX c gainsboro",
"pX c #DDDDDD",
"aX c gray87",
"sX c #DFDFDF",
"dX c gray88",
"fX c #E1E1E1",
"gX c #E2E2E2",
"hX c gray89",
"jX c #E4E4E4",
"kX c gray90",
"lX c #E6E6E6",
"zX c #E7E7E7",
"xX c gray91",
"cX c #E9E9E9",
"vX c #EAEAEA",
"bX c gray92",
"nX c #ECECEC",
"mX c gray93",
"MX c #EEEEEE",
"NX c #EFEFEF",
"BX c gray94",
"VX c #F1F1F1",
"CX c gray95",
"ZX c #F3F3F3",
"AX c #F4F4F4",
"SX c gray96",
"DX c #F6F6F6",
"FX c gray97",
"GX c #F8F8F8",
"HX c #F9F9F9",
"JX c gray98",
"KX c #FBFBFB",
"LX c gray99",
"PX c #FDFDFD",
"IX c #FEFEFE",
"UX c white",
/* pixels */
"D.6.8.t.].<XyXpX$X9XN.L.v.| Q.zXqX.X;.*.p.:.OXcXJ.h.:...9.#XdX1X9XyX+XY.h.n.O._.DX&X*X+.*.s.8.OXfX|.H.q.*.t.W.qX3XhX$X(.~.S.a.( ",
"7.A.e.,.2.>XPXxX>X^.k.D.M.Q.{.>XE.H.#.E b.n.U.iXF.a.x.h.>.8.>XUXjX=XH.b.Z.S.H.:XyX~.j.#.^ n.m.J.jXD.9.V.u.>.8.5XUXpX;X).B.v.S.E.",
"m.[.c.w.T i.kXMX4XJ.6.v.k.,X5X%X(.q.&.` F./.G.9X).L.E.A.h.E g.mXCX@XV.u.F.m.<XsX,XH.5.4.] M.XXF.2X^.v.'.V.r.Q s.CXxX9Xz.4.x.H.2X",
";X'.Q.n.X./ ;XMX=XU.} 0.y.G.eX9X[.,.i.3.h..X7XaX<X2X~.i.E.o.,.4XsXoXD.:.p.u.{.0X4XZ.d.8.1.y.<X3X:XeX@X[.G.N._ ..>XZX3X2.;.y.u.~.",
"5XI.E.b.y.v.8XgX`.z.~ $.A.z.@XqXz.f.K.w.=.S.xXVXaX,XI.8.P.u.U.mX@XI.i.Q >.N.B. X1Xm.x.w.u.3.S.fXbXfX#XS.N.x.r.H.6XsX(.r.=.*.g.G.",
"7Xm.8.k.v.*X,X<XE.*.O.$.$X+X`.2XM.~.E.z.<.T F.ZXNXR.b.a.b.v.-XgX+Xz.%.Q 9.=X~.+X%XL.H.P.C.p.W H.FXdX Xy.q.f.S.%XtX#XC.q.~ 1.*X].",
"<Xh./ e.b.(.OX,XJ.<.6.>._.wX8XeX4XOXY.D.d.S w.zXyXI.q.<.i.v.).;X4Xg.,.1.6. XqXiX1X%X%X'.L.m.U ,.vXaX].9.| s.N.T.7X}.N.,.` t.@X3X",
"R.g.` O.z.m.rXsXn.x.8.>.0. XPXnXnX.XE.m.g.f.+XsXW..X1.D >.j.F.hX6Xf.a.x.' 0.dXnXgXyXrXN.n.c.p.f.bX6XG.r.E 0.y.A.yX&XC.9.h.2.>.yX",
"N.d.' ;.^.Q.7X1Xs.D.F.N.` :.pXVX:XK.s.k.k.(.6X(.U.k.o.[ 9._.~.0X+Xe.D.x.a.O.8.NX2XqXU.d.m.M.R.3X4X&Xy.0.^ :.{._.,XXXp.V.A.f.I 2.",
"Z.3.%.f.%X#X*XoX(.Y.oXd.$.M P.cX>XI.<.=.C.s.{.LX'.d.&.1.l.>X:X3X.XE.&X`.w.Q I U.UXwXH.@.-.v.J.$XbX,Xl.3.>.a.&X*X<X^.Q.&X/.l.} Y ",
"M.e.a.5.m.:XsX8X5X[.*Xl.v.} Z.mX%XV.,.) a.7.+XCX(.t.1.7.<.L.-XyX5X5X,X+Xj.0.1.^.kX_.K.O.Q p.v.W.gX{.Z.e.p.,.D.>XiX&X#X+X/.m.p.;.",
"C.V.B.$.R n.zXSX&X).v.x.C.Q.{.qX_.n.=._ b.K.:X-XP.n.C.z.} } P.BXaX=XD.m.b.L.!.<X#Xm.V.4.[ h.G.H.2XG.B.N.N.} ( J.hXbX.XA.A.N.D.'.",
").T.B.h.U ) *XMX@X!.&.h.s.[.7X1X!.Q.+.| /.%X%XiXT.~./.K.<.V 3.uXkX Xv.5.j.n.Q.*XpXH.9.>.-.V.*XXXeX).G.T.T.r.S 1.9XBX[.D.9.d.m./.",
"#X XV.S.$.<.>XqX#XS.#.6.t.f.qXsX{..Xh.:.8.Y.qXcXrX-XP.B.z.' w.,XpX`.A.$.1.8.G.2XaXY.<.:.;.y.OXyXhXaX$X!.A.V.@.r.6XrX_.R.~ &.l.u.",
"oX`.v.x.t.].aX,XR.q...} M.u.+XuX[.W.{.k.F X.9XaXFX>XV.j.S.z.XXwX=XC.u.~ X.z.G.3X=XL.j.s.8.o.q.>XxXnX3XF.s.j.b._.8X2XP.b.Y O.G.c.",
"].x.w.v.Z.2X2X=XL.w.#.o.$XoX[.2XL.m..XP.o.f P.CX,XJ.a.w.h.B.0X1X&Xc.2.] 9.>XE..X0XQ.I.A.b...S G.HXtX'.f.g.t.E.4X;X5XN.2.*.5.'.+X",
"$Xp.! b.1.E.hX&XD.f.%.*._.-XwX-X;X7X`.n.s.! d.5X4XE.:.U Z.5.|.vX*XS.3.;.q.~.qX%X;X,X4X{.v.y.E 3.MXaX}.6.` g.v.).wX;XH.9.' j.`.OX",
"{.7.G %.s.F.>X<Xl.c.u.p.-.^.zXsX8X%XZ.Z.B.V.XXqX].h.<.A 7.t.W.0X~.A.x.7.4.i.E.LXxX>X@XD.Z.m.a./.<X6XW.0.A O.Z.H.rX%Xc.v.h.2.6.=X",
"B.7.X.#.).J./.1XL.T.L.Z.~ ,.*XZXqX!.7.g.g.}.8X5X_.:.;.J 6.).W.!.oXW.R.b.v.*.[ tXKX;X).e.h.k.K.6X*X*Xz.s.W $.`.S.(.'.Z.U.L.r.' q.",
"h.i.w.,.=X:X=XqX,X{.E.D.d.U v.ZXiX/.7.5.r.E.:XrX[.,.,.| 6.#X&X$XtX$X(.L.Y.1.Y T.HX9X[.q.2.t.K.1XtX@Xq.g.=.1.].%X$X-X&X%XI.P.w.T ",
"N.l.8.o.Z.iXNXvX8X(.V.S.E.w.P.uX;XL.4.| p.x.Q.yXG.d.a.w.[ w.;XIXiX2XQ.D.V.d.V.;XtX-XF.1.' y.D.].tX].i.k.8.X.9.4XVXdX,XoXM.C.v.a.",
"N.F.l.,.] U.lXVX:XU.p.V.v.%XtXXXY.s.%.( n.N.I.wXb.J.V.Z...Z Z.nXhX3XJ.z.l.H.1XyX*XQ.8.@.` m./.|.,XR.N.K.D.<.B h.qXbX@XV.u.d.b.>X",
"L.(.I.n.~ %.-XBX:XF.,.y.t.OXiX$XU.a.4.<.D.XX%XdX^. XJ.I.k.L 8.#XvX#Xb.7.d.I.[.,X7XR.e.2.5.H.,X0X9X|.)._.~.V.U [  XhX@Xl.1.i.M.;X",
">X{.B.Z.,.o.%XFX2Xb.{ X.m.l..XkXY.s.0.t.s.*X3XuX7X3XY.F.Y.$.a.4XaXW.a.} 1.c.b.9X7XH.s.5.9.y.+X8XbXpX2X^.x.H.u.8.1X%XE.j.! { 9.n.",
"rXd.j.e.S.#X1X1XQ.8. .( }.^.I.8Xc.c.H.P.;.2.-XFXdXY.g.z.i.U.eX4XXXV.1.) ,.}.I..X:Xa.g.I.Z.:.2.*XAXpX%Xz.p.l.F.yX@X$Xc.<.T $.[.B.",
";XV.1.y.x.W.;X:XF.0.5.9._.5X>X,X%XR.~.A.i.D B.vXvX^.k.<.p.g.|.aX>XB.;.$.e. X>X@X3XW.#XT.h.m.Y q.UXVX^.a.9.x.h.[.$X{.s.#.O.q.{.aX",
"Q.A.U 3.i.S.6X0Xn.<.>.1.s.qXVXwXkX%X/.J.P.~ h.hXwXF.e.R a.r.H.zX&Xb.9.7.2.M.kXNXeX7X6XR.d.^.( =.xXMXG.t.{ 6.q.H.yX$XM.6.a.0.u.eX",
"v.h.F <.C.W.9X1XM.s.x.5...D.vXHX4X{.j.V.P.b.Y.eX@Xj.2.H s.G.Y.rX].l.n.j.,.O.].NXlXsXE.Z.l.K.n.^.6X3Xz.8.R >.A.T.sX|.f.q.z.,.@.^.",
"g.q.+.w..X=X3X'.N.U.%Xc.{ K ~.AX1XU.6.p.V.~.4XaX$Xx.9.' i.=X%X>X+XV.`.Y.z./ } ).DX8XV.e.e.g.E.qXzX[.u.2.[ i.>XoX-X~.M.!./.q.[ ` ",
"M.y.t.4.T.:XyX,X|.[.OXb.7.L S.iXyXA.5.@.z.c.6XsXOXc.y.>.8.XX5X9XqX[.1X{.V.X.! ^.VXOXW.&.} i.c.{.NX'.x.q.%.w.+X,XeX:X+X8X$Xv.=.Z ",
"C.N.l.*.=.R.hXbXyX|.G.b.V.n.<XqX#Xv.o.E z.f._.&X~.z.z.y.3.6.].cXfX%X.XQ.f.i.n.1X3X!.J.-.E l.B.G.4X{.V.z.q.,.3.`.GXtX=XW.Z.A.V.J.",
"l.R.Z.7.H a.0XlXOXP.j.n.z.~.yX$XP.J.[ X.Q.OX/. XE.B.P.n.8.z h.VXgX].k.M.u.R.-X.XE.I.8.q./ B.$X!.'.`.g.B.D.w.x d.vX7X4XC.j.A.k.@X",
";X-Xz.c.O.L .XCX4XJ.*.7.c.s.3XkX|.K.y.-.Q.;X1X9X4X X Xz.f.( | lXyX:Xc...f.e.V.aX5X~.9.<.=.m.0XOXpX3X+XoXs.F.L ~ lXCXQ.c.:.y.p.U.",
"%X/.G.k.e.D.:X9XW.x.@.[ a.5.XXNXOX~./.p.5.S.dXNX9X*X(.M.n.6.A.9XyXE.t.^ ,.i.x.rX4XY.&.9.8.%.Y.3XDXiX:X`.b.J.2.n.%XeX).C.} o.q.p.",
";Xb.S.p.v.9X7X,XR.p.[ ` ].'..X,Xv.D.|.c.' } #XPXuX+Xz.j.C.m.7X7X<Xl.0.' :.~.F.*X:XH.g.x.g.' ] _.JXsX#XN.h.N.C.1X1X&Xc.6.W *.'.^.",
",Xu.5.q.k..X7XwXj.9.;.>.~.,X&X*X!.+X+XH.8.S a.NXkX/.;.=.j.c.<X9X$Xx.e.&.4.2X&X&X:XU.,XU.v.0.b 0.nXhX_.0.&.w.N.>XdX2Xc.w.-.5.+XOX",
"[.p.U 4.g.b.6X,Xv.u.0.0.w.$XaXgXwX:XR.Z.n.X.N.hXiXT.>.P 3.k.I.-X&XD.w.6.:.U.*XpXeX+X0XW.c.N.;.e.iXzXT.4.E ;.g.T.3X3XV.d.e.*.D.+X",
"B.g.S <.V.Z.7X(.^.Z.v.k.$.Z.eXlX6XY.j.x.M.N.7X4X.XV.y.Z ;.K.J.$XoXH.k.m.8.@.z.iXbXqXR.M.d.z.].}.;X8Xm.6.E <.Z.K.@X+Xm.z.l.9.6.B.",
"l.p.] 3.W.#X3X#XW.W.`.H.*.P !.zXtX/.s.d.M.G.tX&X(.i.f._ q.}.oX2X&X^.^.P.B.| ..&XNXwXV.5.9.i.W.0X>X Xd.8.o.6.XX[.1X=X}. XU.F.[ I ",
"B.0.7.9.`.tX;XnX7X[.E.V.D.Y /.mX5X'.$.{ d.s.%XjX-X0.a.6.h.{.4X9XdX:X>XN.U.r.{ {.lX1X).o.>.f.=.&XkX}.j.t.6.3.5X&XuX3X6X*Xz.!.9.@.",
"i.B.<.-.<.*XJXtXyXI.l.N.h.XX*X}.'.l.&.Y r.m.W.4Xv.N.0.C.` R rXBXcX5XG.d.j.H.@X>X:Xn.B.&.M h.c.N.2XU.i.f.Z.` 0.9XBXlX7XZ.N.f.S.%X",
"N.^.R.d.] 6.sXGX:XK.6.x.J..XeX6XC.u.{  .D.oX(.3XH.S._.c.f.G 6.mXkX%XA.8.z.H.XX7X2Xn.<.{ ) U.|.(.:X/.C.(.S.8.' 0.cXDX=Xn.a.f.A.$X",
"OX].'.v.] ~ 4XPX$XL.[ -.V.B.1XiXN.t.&.0.B.0X4X6X+X'.,XV.H.^ / yXgX[.x.' 1.c.E.qX6XK.;.#.:.P.>XqXqX;X*XoXA.v.] ' iXLX|.k.%.4.h.D.",
"eXJ.f.M.l.z.qXwX`.n.Q _ V.f.^.4XK.i.k.s.&.(.jXkX0X-XI.K.c.u.I.3X2XR.t.T { v.n.$X+XH.j.t.3.8.A.uXvXaXgXC.b.m.l.Y.2XfXE.y.! X.v.u.",
"7Xm.+.C.~.;XdX$XA.1./ $.XX X_.;XI.n.U.a.X.=.|.UXtXoXt.s.a.A.tX8X}.C.>.} ;.|.F.[.'.z.U.Z.p.O._ ~.CXbXqX6.r.c.H.sX9X$XS.4.W +.+XR.",
"&XC.` w.j.'.tXtXA.=.] 1.oXtX2X8X{.}.`.z.k.W 8.UXiX!.a.( k.z./.0X&Xv.O.&.w.>X=XwXyXL.+X/.I.q.U r.MXmX}.8.@.p.t.|.NX+XV.2.O.,.2X9X",
"`.v.! ..r.C.>XuXZ.u.=.8.d.`.tXsX5X=XQ.M.F.y.k.nX5XK.i.F h.z.b.tX3Xz.6.8.8.b.<XAXFX;X<XW.P.c.e.n.eX4XR.r.~ 1.i.v.vX$Xc.e.u.3.v.;X",
"G.0.T #.!.T..X{.e.n.u.k.{ r.wXgXwX/.M.z.s.%XqXuX[.V.@.T 0.T._.lXOXd.D.B.6.P ~.vXhX5X$Xz.t.s.].;X{.L.U.5.E $.].H.$X[.r.f.S.3.P J.",
"j.4.2.=.:X`.3X].b.).~.c.y.P W.nX*X'.1.7.c.U.0X0X:Xx.$.<.x.gX{.1X*Xh.,X.XM.R M -XIXzXY.q.9.i.I.-X2X=Xs.3.[ 6.5X/.;X@Xa.+X`.l.) k ",
"B.5.<.>.G.3X9XgX-X].Y.z.B.d.}.uX XI.&._ t.9.'.jXOXk.9.4.#.K.5XkXeX}.4X^.z.-.1.T.CXpX`.2.{ 1.b.|.fX|.j.r.1.,.H.3XBX9X+X6XP.d.s.#.",
"H.D.p.=.+.[.vXHX9XP.M.z.Y.OX=X<XI.p.} U V.y.K.uXB.j.z.j.&.[ '.VXtX:X'.B.v.v.}.`.#XE.B.#.' y.V.R.9XI.F.x.l.2...}.LXlXrX.XN.f.J.P.",
"].#Xb.y.) o.lXCX:XZ.e.y.c.{.4X4XE.0...[ /.}.XX2XN.Y.F.S.d.A ;.jXiX+Xb.q.n.n.XX8X$Xm.1.$.1.S. X}.&X(.$XY.S.a.K *.zXZX=Xj.d.h.s.'.",
"2X{.x.!.1.Q %XhX&XH.$.-.4.B.qXwX/.h.5.-.k.&XsXaX1X-X!.S.s.} $.9XjX.Xj. .i.r.l.wXbX).7.0.7.p.%XyXsXqXrX`.A.m.&./ qXnX_.e.$.w.:.G.",
"-XK.x.!.e.Y. X1XE.l.( *.l.A.0X,Xh.l.c.w.[ x.uXDXxX+X~.S.e.B.~.2X5XE.j.I 2.k.g.7X6XY.g.v.3.' n.0XKXjX>XH.g.N.D.C.;X<XU.j.H ;.d.V.",
"+XM.t.f.s.9X4X&XV.2.' <.}.|.5X*Xx.L.Y.z.| ! [.AXdXQ.v.h.h.F.wX7XOXx.p.W 6.^.].1XXXk.A.G.h.O./ L.NXdXXXi.7.h.H.6X-X#XV.p.U :.!.^.",
"6Xp.{ 1.H.Q.tX0X^.6.=.>.=X>X2X9X0X8X|.B.0.z B.xXjX(.;.#.m.3.-XiX<Xf.y.$.i.OX6X|.VXF.'.T.E.c.n 7.yXlX,X8.2.r.w.4XrXrXn.:.=.9.|.&X",
"!.p.[ =.m.s.pX9XH.r.3.$.q.,XNXiX4X].Z.V.1.x.!.<XtXW.q.m =.n.D.1X].m.j.8.h.0.%XkX7XrX<XJ.m.i.H.J.1XeXZ.y.R d.a.G.kX@XY.d.y.,.9.3X",
"z.8.:.=.1XI.%X$X8.N.S.a.} e.tXAX.XP.w.N.G.E.-X>X{.C.&.T i.!.N.*X-XP.D.c.j.#.u.lXzX2X(.p.k.B.P.4X%X^.q.-.Y k.:X~.;X%Xu.Z.G.l.] e.",
"C.6.,.3.1X@X*X,XM.oX`.C.) ~ $XnX|.D.X.,.N.v.-X3X).v.,.=.r.XX].4X2X}.[.T.C.=.E &XPX1XU.3.2.v.k.6XeX/.q.<.:.p.yX;X<X:Xh.].(.A.O.P ",
"M.z.5.9.7.-XVXwX7X-XL.D.d.a. X$X].v.o.E 0.1.`.rX'.h.f.q.{ Z.5XvXqX-XXXS.G.z.9.{.lX+XG.5._ a.x.].MX&Xs.8.k.1.Y.dXjX1X+XoXU.N.S.4.",
"9.'.N.8.S N.FXpXuXR.f.v.!.OXOX}.L.<.:._ C.F.{.yXY.l.V.i.O.) H.SXcX>XW.9.z.N.;XqX&XL.p.<.R M.;X{.dX'.l.a.s.7.>.oXsXeX0XY.k.B.R.+X",
"U.,XR.d.X.J +XGX,XN.5.<.z.(.+XrXY.@.1.+.`.3X,XwX).`.R.C.Z.V ' kXvXoXC.=.w.q.:XqX4XF.5.;.] H.gX&XwX(._.).f.B.} +.:XxX+Xh.<.v.8.-X",
"wX}.A.M.k.' ).VX{.b...{ 6.N.#XsX!.8.w.&.M.{.7XsX9X4XT.H.Y.*.2.0X9X!.f.} 3.w.G.$XaXF.a.6.6.z.}.1XfX8X;X.Xb.L.3.=.%XeXY.u.` 3.4.U.",
"%Xm.l.M.j.#XjXoXD.d.I @.n.K.*X@XC.z.b.5.;.p.5XNXkX%Xc.l.r.P.*X9X%XU.4.F -.G.M.,X>Xk.n.s.b.9.s.uXxXBX^.j.g.b.C.4X-X~.H.d.L _ E.V."
};
