/* XPM */
static char *_f65a1b698974f6e85f1313ecfbd8bb65V11je8EMh8Ue4DL[] = {
/* columns rows colors chars-per-pixel */
"64 64 90 1 ",
"  c None",
". c #0F1013",
"X c #111215",
"o c #131016",
"O c #16171B",
"+ c #191B1F",
"@ c #1C1D21",
"# c #1E2023",
"$ c #1F2023",
"% c #1F2124",
"& c #212225",
"* c #212226",
"= c #222326",
"- c #232426",
"; c #242627",
": c #25262A",
"> c #28292A",
", c #2A2A2B",
"< c #2B2B2C",
"1 c #2C2C2D",
"2 c #2D2D2E",
"3 c gray18",
"4 c #2A2B30",
"5 c #2C2D31",
"6 c gray19",
"7 c gray21",
"8 c #373737",
"9 c #3E3832",
"0 c #343538",
"q c #36383E",
"w c #3A3A3A",
"e c #3C3C3C",
"r c #3E3E3E",
"t c #3F3F3F",
"y c #4F4A3D",
"u c #544830",
"i c #3C3E44",
"p c #11797F",
"a c gray26",
"s c gray27",
"d c #5A5647",
"f c #4B4D50",
"g c #505154",
"h c #555357",
"j c #555559",
"k c #5A5B5E",
"l c #6C5A47",
"z c #625B52",
"x c #716953",
"c c #7E6D5A",
"v c #626366",
"b c #68696C",
"n c #9A6D29",
"m c #847868",
"M c #887B6C",
"N c #9F7370",
"B c #D6716A",
"V c #B6933A",
"C c #C38526",
"Z c #C88C29",
"A c #CC912A",
"S c #D29A2E",
"D c #D59E2F",
"F c #BE9A4A",
"G c #8F816F",
"H c #A2927D",
"J c #A3927D",
"K c #A6957F",
"L c #C09D43",
"P c #DDB14D",
"I c #E5B845",
"U c #E8C976",
"Y c #7E7E80",
"T c gray61",
"R c #BBA283",
"E c #BCA88E",
"W c gray",
"Q c #C7B983",
"! c #E4C59D",
"~ c #E8C89F",
"^ c #C4C0AD",
"/ c #F2D0A4",
"( c #F5D2A6",
") c #CBCBCB",
"_ c #DBDBDC",
"` c #DDDDDE",
"' c #E8E9E9",
"] c #E9EAEA",
"[ c #EAEBEB",
"{ c #FDF5EB",
/* pixels */
"                                          ++                    ",
"                                        ++++      +             ",
"                             ss66666++@+++++++++++              ",
"                             6s666663+@3@#6@+++++  _            ",
"                          Ws7wt36666666>63>#+++++b+             ",
"                          s6ss666666666666666++++++             ",
"                          ws36s6666666666666+6++++              ",
"                         sws666666666666666666,@++++            ",
"                         ss6s66666DD666DDZ6666#6+++_            ",
"                         )a7t6666nPPF66DDAC666=,+++gk           ",
"                          ws6666DCDDUD6DDDC6663@++++            ",
"                          Tss6666CDDU66DDZC666#6+++_++          ",
"                           ss66666DD666DDZC666#6+++ +           ",
"                           666666666666DDDC6663@+++++           ",
"                           QQddduuuuuuuuuSC6661#++++f           ",
"                          66666666666666666CCC#6++++++          ",
"                         s666666666666666666CC,++++++           ",
"                        s6666666666666666665@33+++++++          ",
"                        s666666666666666663@@@#6++++++          ",
"                        666666666666663&&@3HK+mHH++_ _          ",
"                        s6666666666666@@@GEEE+R~(++_            ",
"                          66666666666@@@EE~~~+R~(+ _            ",
"                          +  EEEEEEEEEEEE~~~~~~((               ",
"                          ++ EEEEEEEEEE~~~~~~~/((               ",
"                           ]  EEEEEEE!~~~~~~~~((                ",
"                              E~~~~~~~~~~~~~~({                 ",
"                              ~~~~~~~~~~~~~~~({                 ",
"                               ~~~~~~~~~~~~~((                  ",
"                               ~~~~~~~~~~~~((                   ",
"                                 ~~~~~(((((~5:q55               ",
"                                  ~~(((((I:::i4::               ",
"                                 :::MEEEEII:i::::               ",
"                                ::cccccc::IIi::::::             ",
"                                ::cccccc::IIi::::::             ",
"                                 ::ccccc::II:::::::`            ",
"                                  :cccc:::II::::.::`            ",
"                                 ::llll:::II::::.:::            ",
"                                 :llccc:::II:  ::::::           ",
"                                 :ccccc:::II:  ::::::           ",
"                                 :ccccc::::I::  :::::           ",
"                                 :ccccc:::::.. ::::::           ",
"                                ::cccccc:::::.j::::::           ",
"                                :^ccccccc:::::VI::::            ",
"                               Y:^ccccccc:::::LII:::            ",
"                               Y^^ccc:::::::~teetI....          ",
"                               :^::::::;pp::~eeew..&::.:]       ",
"                              ::::;;Ipp;pNB!~~ze...::::X:       ",
"                                BBBBBII:::X.~~9..::::::::       ",
"                                ::..&:::::..~~..:::::::::       ",
"                               Y:::.O::::::.:.....X&:::.]       ",
"                               Y:::.yx:::::.:.:::::::::::       ",
"                               Y:::.yx:::::.::::::::::::::      ",
"                               ::::.yxx::::..:::::::::::::      ",
"                              X::::....::::. ..:::::::::::      ",
"                               ::::.   :::::.     .:::::X.      ",
"                               ::::.   :::::.      &:::X]       ",
"                               ::::.   :::::X      0...         ",
"                               :::..    ::::.                   ",
"                               :::..    ::::..                  ",
"                              oo:::X     ::::.                  ",
"                             oooooo      v::oo                  ",
"                             ooooo       v::oX                  ",
"                                         hooo                   ",
"                                         hoo                    "
};
