/* XPM */
static char *_25bb7209bfc47fe9a0804d1a1eb95245V4g83Ox8TFdgXq6[] = {
/* columns rows colors chars-per-pixel */
"64 64 90 1 ",
"  c None",
". c #0F1013",
"X c #111215",
"o c #131016",
"O c #16171B",
"+ c #191B1F",
"@ c #1C1D21",
"# c #1E2023",
"$ c #1F2023",
"% c #1F2124",
"& c #212225",
"* c #212226",
"= c #222326",
"- c #232426",
"; c #242627",
": c #25262A",
"> c #28292A",
", c #2A2A2B",
"< c #2B2B2C",
"1 c #2C2C2D",
"2 c #2D2D2E",
"3 c gray18",
"4 c #2A2B30",
"5 c #2C2D31",
"6 c gray19",
"7 c gray21",
"8 c #373737",
"9 c #3E3832",
"0 c #343538",
"q c #36383E",
"w c #3A3A3A",
"e c #3C3C3C",
"r c #3E3E3E",
"t c #3F3F3F",
"y c #4F4A3D",
"u c #544830",
"i c #3C3E44",
"p c #11797F",
"a c gray26",
"s c gray27",
"d c #5A5647",
"f c #4B4D50",
"g c #505154",
"h c #555357",
"j c #555559",
"k c #5A5B5E",
"l c #6C5A47",
"z c #625B52",
"x c #716953",
"c c #7E6D5A",
"v c #626366",
"b c #68696C",
"n c #9A6D29",
"m c #847868",
"M c #887B6C",
"N c #9F7370",
"B c #D6716A",
"V c #B6933A",
"C c #C38526",
"Z c #C88C29",
"A c #CC912A",
"S c #D29A2E",
"D c #D59E2F",
"F c #BE9A4A",
"G c #8F816F",
"H c #A2927D",
"J c #A3927D",
"K c #A6957F",
"L c #C09D43",
"P c #DDB14D",
"I c #E5B845",
"U c #E8C976",
"Y c #7E7E80",
"T c gray61",
"R c #BBA283",
"E c #BCA88E",
"W c gray",
"Q c #C7B983",
"! c #E4C59D",
"~ c #E8C89F",
"^ c #C4C0AD",
"/ c #F2D0A4",
"( c #F5D2A6",
") c #CBCBCB",
"_ c #DBDBDC",
"` c #DDDDDE",
"' c #E8E9E9",
"] c #E9EAEA",
"[ c #EAEBEB",
"{ c #FDF5EB",
/* pixels */
"                    ++                                          ",
"             +      ++++                                        ",
"              ++++++++++++++66666ss                             ",
"            _  ++++++6&+6++666666s6                             ",
"             +b+++++&,26,26666666r7wsW                          ",
"             ++++++666666666666666ss6s                          ",
"              ++++6+6666666666666s66sw                          ",
"            +++++,666666666666666666sws                         ",
"            _+++6#6666ZDD666DD66666s6ss                         ",
"           kg+++,-666CADD66FPPn6666r7a)                         ",
"            +++++6666CDDD6DUDDCD6666sw                          ",
"          ++_+++6#666CZDD66UDDC6666ssT                          ",
"           + +++6#666CZDD666DD66666ss                           ",
"           ++++++6666CDDD666666666666                           ",
"           f++++#2666CSuuuuuuuuudddQQ                           ",
"          ++++++6#CCC66666666666666666                          ",
"           ++++++<CC666666666666666666s                         ",
"          +++++++<6@6666666666666666666s                        ",
"          ++++++6#+@@666266666666666666s                        ",
"          _ _++HHm+KJ2@#&666666666666666                        ",
"            _++(~R+EEEG@@@6666666666666s                        ",
"            _ +(~R+~~~EE@@@66666666666                          ",
"               ((~~~~~~EEEEEEEEEEEE  +                          ",
"               ((/~~~~~~~EEEEEEEEEE ++                          ",
"                ((~~~~~~~~!EEEEEEE  ]                           ",
"                 {(~~~~~~~~~~~~~~E                              ",
"                 {(~~~~~~~~~~~~~~~                              ",
"                  ((~~~~~~~~~~~~~                               ",
"                   ((~~~~~~~~~~~~                               ",
"               55q:5~(((((~~~~~                                 ",
"               ::4i:::I(((((~~                                  ",
"               ::::i:IIEEEEM:::                                 ",
"             ::::::iII::cccccc::                                ",
"             ::::::iII::cccccc::                                ",
"            `:::::::II::ccccc::                                 ",
"            `::.::::II:::cccc:                                  ",
"            :::.::::II:::llll::                                 ",
"           ::::::  :II:::cccll:                                 ",
"           ::::::  :II:::ccccc:                                 ",
"           :::::  ::I::::ccccc:                                 ",
"           :::::: ..:::::ccccc:                                 ",
"           ::::::j.:::::cccccc::                                ",
"            ::::IV:::::ccccccc^:                                ",
"            :::IIL:::::ccccccc^:Y                               ",
"          ....Irrwr~:::::::ccc^^Y                               ",
"       ]:.::&..wwrw~::pp;::::::^:                               ",
"       :.::::...rz~~~BNp;ppI:;::::                              ",
"       ::::::::..9~~..:::IIBBBBB                                ",
"       :::::::::..~~..:::::&..::                                ",
"       ].:::;......:.::::::O.:::Y                               ",
"       :::::::::::.:.:::::xy.:::Y                               ",
"      ::::::::::::::.:::::xy.:::Y                               ",
"      :::::::::::::..::::xxy.::::                               ",
"      :::::::::::.. .::::....::::.                              ",
"      oo:::::.     .:::::   .::::                               ",
"       '.:::&      .:::::   .::::                               ",
"         ...0      .:::::   .::::                               ",
"                   .::::    ..:::                               ",
"                  ..::::    ..:::                               ",
"                  .::::     o:::oo                              ",
"                  oo::v      oooooo                             ",
"                  oo::v       ooooo                             ",
"                   oooh                                         ",
"                    ooh                                         "
};
