/* XPM */
static char *walls1662894756[] = {
/* columns rows colors chars-per-pixel */
"64 64 47 1 ",
"  c #1E1F4F",
". c #1D1F50",
"X c #1F204E",
"o c #1F2253",
"O c #22244F",
"+ c #242554",
"@ c #282754",
"# c #262854",
"$ c #262659",
"% c #292759",
"& c #262859",
"* c #2A2A5C",
"= c #2D2E61",
"- c #2D3164",
"; c #2E316D",
": c #323265",
"> c #35346D",
", c #38356E",
"< c #34386D",
"1 c #38386D",
"2 c #353671",
"3 c #383770",
"4 c #343970",
"5 c #3B3E75",
"6 c #3D3F79",
"7 c #3D4274",
"8 c #3D4178",
"9 c #414575",
"0 c #41467B",
"q c #474A7D",
"w c #434784",
"e c #464D86",
"r c #494E85",
"t c #454F8B",
"y c #494F8A",
"u c #475087",
"i c #4A5187",
"p c #46508C",
"a c #4A528C",
"s c #465391",
"d c #555F96",
"f c #525E9B",
"g c #4F619F",
"h c #54619E",
"j c #58629E",
"k c #5463A2",
"l c #5962A0",
/* pixels */
"+++++++o8septpptttsy2;,;,;>>>;,>>>>>>>>>>>>>:>>:>>:11::>>2,,;;>>",
"+++++++o7spptpppstyy2,,,>,>,>>,,>>>>>>,;>2,>::>::>::::>3>>,>,,;>",
"++++++&o7apptpptptyy;;2;;,>>>>>>>>,>,;,,>>;=%$$+$$@@&$=>>>;>>>,>",
"+++$+++o8apptputptyw2,,,>>>,,,;>>:>>,,,;>>=$@@+++$++++=1>>2>>>>>",
"+++++++o6aestpttptpy2>>>>,>>,>>>>>;,;;,,>1:=@++++$++++*1>>>>>>>>",
"+++++&+o8atpttatptpy2>3>>>;,>>,,>,,,,,,;>>:%+OOO++O+++@:>>,>>>:>",
"+++++#+o8atttpttppee2;>>>>>>;>>;>>,;,;,;>>:*++@@++O+O+@>>>>>>>,,",
"+++++++o8aestpatptyt2>2>,;,>,,>>>>,;,,,,22:%++O+++OO+O*:>,>>>>3>",
"+++++++o8ptptpptptye2>>>>>>>>>>>>,>;>>,,,,>%+ ++##O##O#:>>>>>>,;",
"+o+&++&o8atpttptptyy2>2>>>>>>>>1>>,,>>>>;>:%o++OOOOO##*1,:>>>>;,",
"&++++++o8atptpptttye>>22>>>>>>>>>>,,>>,>>>:%@+#+@#@OOO#1,1>1;,,,",
"+++++#+o8atptputttyr2;>>,,>>>>1>>>>;>>>>>2:%+++++@OOOO*::>:>,,,;",
"+++++++o8aeststtptyt;,2,,;,,>>>::,>>>:,>>::*+O#++@++O#=:11>>;>,>",
"+++++&+o8aetttytttyr2;,;;,;,>>1::=;=:=:===:**%*=**=**==*=====::=",
"+++++++o8atttpptytye2,2,,,,2>>,=@++++++o%+*::::11>>:::=$+@o+ ++@",
"+++++++o8atstputttte2;,2;;,,>>>=+@++++++O +*11>:>>>11::@ +@ +O++",
"++++&++o7upptsttttye2;2>>,>,;,1=@+@+++++$++:1>>>>>>>1>=++++++++@",
"+O+++&+o7upstpttstty2>2>>>>>>>1*@++++O+++.$:1>>>>>>>>>=@++++++#&",
"#O#++#+o7utptsttttst2>>>,2>>>>,*+++++OO+$++:1>>>2>>>>1=+++++++O+",
"OOO#+#Oo7ytststtttte22>2>>>2>>1*+++++++++++:1:>>>>>>>2:++@+++++O",
"#OO#++oo7itatytpytyy2>2>2,>>>>>=+++++++++++;1:1>,>;,,>=$++$+++++",
"OO+O+#Oo7irytattttyr;>>2>>>>>>1=+$$+++++$++=1>>>>2,,2>=@$+++++++",
"#OO#o##o7ryytyuyyyyr2>2;>1>1>>1*+++o+ $o+++=111>>>>>>>=@+++$++++",
"#OO++##o9iryyyeuryrr>:,>:>>1:>1*++@@++++$++:1:::>>>>>,=%o++++O++",
"#O#O+++$8qryeeerruy03,:,,::1>>::+++++++++@@=:1>>;;:2>>**+++++++O",
"O#++++++==:--;--=-:-%%%*%+%%**++$+++++O++O+&***%%$==**+O+++++O++",
"++#+@+@++o+ooooooo+o++@O++++$++++o$+++++#+++&+++$+++++++++++++++",
"%+++o@@++$++o$&+&+++O+OO+$++++++++++O+++#@++#++++o+@++@++++O+&O+",
"+@++++++++++@&+++$&++#@@++++O+++++@O+++++O+++++@+o$o++++++++++++",
"@@++++++o++OO+++oo++OOO@+++++++#+++++++O++++O.++@@@$+++O+++$++$+",
"++++O++O+++OO+@++++OOO@@++++++++O+++O+++++++++++ooo@+++O++++$++$",
"++++++++++O@+O++++OO@@@O+++++++O+++++++++++++++@@@+@++++++++++++",
"++++++O+OO+OOO+@#+#oo##oo++++++O++++++++++++++++@@+++++++@+++$++",
"++&++#++++++@+++#++#O##o$$$$+&++@#$+++&+$$+++&$$+++++&&++@++++++",
"$+$+++++++$+@ +++o######++++++++++++++@+$+++++++$$+++o++@@@+++++",
"oooooo+oo ooo .+ooooooooo++o++o+++o+oo+oo+o+$+o+o.o$o+++O@O+o+++",
"4<;<2>4;212>332><<<-----==----------;=-=----;=;=;*----*X@OO##+++",
"hhhhffjjfjjjffjjjjjguuuupiuuiiriiiuuyyuuiuiirrryauiiiu7++O+O+++O",
"jjhhhlhlhffjhhhkjjjgpeeuuertueiruueuueuiuuuurrytpuppui7o++++++##",
"kkkkkkhkhkhkgkkkgjjgseupuuuptpetuutuuutptututptteppewi7++@+O++@#",
"kkkkkkkkkkkkkkkkgjkhapuuttptytttutpsptppppppttstpsttaa8o++++++++",
"hhhgkfkkkkkghkgkggghsuputtttytttttttttptppyyttyttppsas8o$+++++++",
"kkkkkkkkkkkkkkkkggkhstpttttsptttppttttttsttttsstttppau8+++++@+O@",
"gkgkkgkgggkkggkgkkkhsppptsttpptttpppststttttttttttttuu8o++++++O@",
"kkkkkkkkkkkkkkkkgjhhstpppsptttttppptststttstttttpptpyi9o+++++++@",
"khkhhgkkgkkkkgkjjhhgstttpptsttttttpptttttsttstttptttya7+%@o++OO@",
"kjkhlkkklkkkkkkkjgggptptyyttttttptttttttttttttttsptpry0o+++++@@+",
"kjjljjhjlllkkkkjjjjgptppyyytttttpyyysyyytyyyttyyyapprr6.$$+++ +@",
"ueeewewetwwwtwtwwww0<<<<<<<<444466666665666665656666501 ++++O#o#",
";;;;;;;;;;;;;;;;;>:;+ooooXoooo.=>>;2,,;>;,;,;>>>,,,;:1: ++++++o#",
"2422222222222222>>1:&o+o##oo$$$=;>,;;,;>>2,;,;>;>>;>>::@++++++#O",
"2>>>;,,;222>>>22211:&+##oo#oo+o*>>22;,>>>22,2,,,>;,,>>=@++++++++",
">>>3>>,,;,,;2>,>>;>=@ +X#O+++#+=>>>>>;>>;>>>;>>;;,,,,>=+#++OO+++",
">>>>>>>>,>>>>>>>,3,>$@@@#O++++o=1>>>,>,,,>>>,,,,,>;,,>:@++++#+O+",
">>>;>;,;,>>>>>>>>;>;$+o+#+##&$o*>>>>>>>;>>>>;>;,>>;;>>=+O+++O+++",
"2>2>,,>,>>>>>>>>>>>:$+@+O#+oo+$=>>>>>>>>>>>>,,,;>>,>,>=+++++#+++",
",,,,,,,>>>>,,,,>>,,=$++@+%+%%o.=>>>>>>>>>>>,>>>>>>3>>1:+#++#++++",
">>>:>,;,,;>>>;>>>>>>%++++$ o% $=>>>>>>>>>,;,>>>>>>2>>1*+++++#++#",
":,>>>>,,>>>>;>>>>>,=%o++O+oo$ $%:>>>>>>>;,,;>>;>>>>>>>*&#++##+++",
":=::====:,,,>>>3>,,;=+%%@$%%%%%*>>>>>,>>>>>>,>,,>>1>:,:+++O#+O+#",
"%+%%%%%%*,,>>:,,>>,,::>:::>>>=>,;>;>>;,,;,>>>>>>>,2>>1*+#+++#++#",
"O++O+o%+*:,>,>,,>>,,>>,,,,,>,,,,,>,>>,;>>>>,>;,,>>,>1::+++++++++",
"+@++++++=,>>>,,,,,,,,:>:>>,>>:>>,>>>,;,,,>>>,>>>,,,>>,=+#++##O++",
"+++++@@@=,,>>>>,>>,,,,>>,,,,,,,,;>>>,,>>>>,;,>;,>;,>>1=++++++++#"
};
